<?xml version="1.0" encoding="UTF-8"?>
<svg version="1.1" xmlns="http://www.w3.org/2000/svg" width="512" height="512">
<path d="M0,0 L24,0 L24,1 L29,1 L29,2 L33,2 L33,3 L36,3 L36,4 L39,4 L39,5 L42,5 L42,6 L44,6 L44,7 L46,7 L46,8 L48,8 L48,9 L50,9 L50,10 L52,10 L52,11 L53,11 L53,12 L54,12 L54,13 L55,13 L55,15 L56,15 L56,22 L55,22 L55,24 L54,24 L54,25 L53,25 L53,26 L51,26 L51,27 L43,27 L43,26 L41,26 L41,25 L39,25 L39,24 L37,24 L37,23 L35,23 L35,22 L33,22 L33,21 L30,21 L30,20 L26,20 L26,19 L22,19 L22,18 L2,18 L2,19 L-3,19 L-3,20 L-6,20 L-6,21 L-9,21 L-9,22 L-11,22 L-11,23 L-13,23 L-13,24 L-15,24 L-15,25 L-17,25 L-17,26 L-19,26 L-19,27 L-21,27 L-21,28 L-22,28 L-22,29 L-23,29 L-23,30 L-25,30 L-25,31 L-26,31 L-26,32 L-27,32 L-27,33 L-28,33 L-28,34 L-29,34 L-29,35 L-30,35 L-30,36 L-31,36 L-31,37 L-32,37 L-32,38 L-33,38 L-33,39 L-34,39 L-34,40 L-35,40 L-35,42 L-36,42 L-36,43 L-37,43 L-37,45 L-38,45 L-38,46 L-39,46 L-39,48 L-40,48 L-40,50 L-41,50 L-41,52 L-42,52 L-42,54 L-43,54 L-43,57 L-44,57 L-44,59 L-45,59 L-45,63 L-46,63 L-46,68 L-47,68 L-47,85 L-46,85 L-46,91 L-45,91 L-45,94 L-44,94 L-44,97 L-43,97 L-43,100 L-42,100 L-42,102 L-41,102 L-41,104 L-40,104 L-40,106 L-39,106 L-39,107 L-38,107 L-38,109 L-37,109 L-37,111 L-36,111 L-36,112 L-35,112 L-35,113 L-34,113 L-34,114 L-33,114 L-33,116 L-32,116 L-32,117 L-31,117 L-31,118 L-30,118 L-30,119 L-29,119 L-29,120 L-28,120 L-28,121 L-27,121 L-27,122 L-25,122 L-25,123 L-24,123 L-24,124 L-23,124 L-23,125 L-21,125 L-21,126 L-20,126 L-20,127 L-18,127 L-18,128 L-16,128 L-16,129 L-15,129 L-15,130 L-12,130 L-12,131 L-10,131 L-10,132 L-8,132 L-8,133 L-5,133 L-5,134 L-1,134 L-1,135 L5,135 L5,136 L19,136 L19,135 L25,135 L25,134 L31,134 L31,133 L32,133 L32,134 L35,134 L35,135 L37,135 L37,136 L38,136 L38,138 L39,138 L39,140 L40,140 L40,145 L39,145 L39,147 L38,147 L38,149 L37,149 L37,150 L35,150 L35,151 L32,151 L32,152 L27,152 L27,153 L21,153 L21,154 L3,154 L3,153 L-3,153 L-3,152 L-8,152 L-8,151 L-11,151 L-11,150 L-14,150 L-14,149 L-17,149 L-17,148 L-19,148 L-19,147 L-21,147 L-21,146 L-23,146 L-23,145 L-25,145 L-25,144 L-27,144 L-27,145 L-29,145 L-29,146 L-32,146 L-32,147 L-34,147 L-34,148 L-36,148 L-36,149 L-38,149 L-38,150 L-40,150 L-40,151 L-42,151 L-42,152 L-44,152 L-44,153 L-45,153 L-45,154 L-47,154 L-47,155 L-49,155 L-49,156 L-50,156 L-50,157 L-51,157 L-51,158 L-53,158 L-53,159 L-54,159 L-54,160 L-56,160 L-56,161 L-57,161 L-57,162 L-58,162 L-58,163 L-59,163 L-59,164 L-60,164 L-60,165 L-62,165 L-62,166 L-63,166 L-63,167 L-64,167 L-64,168 L-65,168 L-65,169 L-66,169 L-66,170 L-67,170 L-67,171 L-68,171 L-68,172 L-69,172 L-69,173 L-70,173 L-70,174 L-71,174 L-71,176 L-72,176 L-72,177 L-73,177 L-73,178 L-74,178 L-74,179 L-75,179 L-75,180 L-76,180 L-76,182 L-77,182 L-77,183 L-78,183 L-78,185 L-79,185 L-79,186 L-80,186 L-80,187 L-81,187 L-81,189 L-82,189 L-82,191 L-83,191 L-83,192 L-84,192 L-84,194 L-85,194 L-85,196 L-86,196 L-86,198 L-87,198 L-87,200 L-88,200 L-88,202 L-89,202 L-89,204 L-90,204 L-90,207 L-91,207 L-91,209 L-92,209 L-92,212 L-93,212 L-93,215 L-94,215 L-94,219 L-95,219 L-95,223 L-96,223 L-96,227 L-97,227 L-97,234 L-98,234 L-98,290 L-22,290 L-22,288 L-21,288 L-21,282 L-20,282 L-20,275 L-19,275 L-19,271 L-18,271 L-18,267 L-17,267 L-17,263 L-16,263 L-16,260 L-15,260 L-15,256 L-14,256 L-14,253 L-13,253 L-13,250 L-12,250 L-12,248 L-11,248 L-11,246 L-10,246 L-10,243 L-9,243 L-9,241 L-8,241 L-8,238 L-7,238 L-7,236 L-6,236 L-6,234 L-5,234 L-5,232 L-4,232 L-4,231 L-3,231 L-3,229 L-2,229 L-2,227 L-1,227 L-1,225 L0,225 L0,223 L1,223 L1,222 L2,222 L2,220 L3,220 L3,219 L4,219 L4,217 L5,217 L5,216 L6,216 L6,214 L7,214 L7,213 L8,213 L8,211 L9,211 L9,210 L10,210 L10,209 L11,209 L11,207 L12,207 L12,206 L13,206 L13,205 L14,205 L14,204 L15,204 L15,202 L16,202 L16,201 L17,201 L17,200 L18,200 L18,199 L19,199 L19,198 L20,198 L20,197 L21,197 L21,196 L22,196 L22,195 L23,195 L23,194 L24,194 L24,192 L26,192 L26,191 L27,191 L27,190 L28,190 L28,189 L29,189 L29,188 L30,188 L30,187 L31,187 L31,186 L32,186 L32,185 L33,185 L33,184 L34,184 L34,183 L35,183 L35,182 L37,182 L37,181 L38,181 L38,180 L39,180 L39,179 L41,179 L41,178 L42,178 L42,177 L43,177 L43,176 L45,176 L45,175 L46,175 L46,174 L47,174 L47,173 L49,173 L49,172 L50,172 L50,171 L52,171 L52,170 L54,170 L54,169 L55,169 L55,168 L57,168 L57,167 L58,167 L58,166 L60,166 L60,165 L62,165 L62,164 L64,164 L64,163 L66,163 L66,162 L68,162 L68,161 L70,161 L70,160 L72,160 L72,159 L71,159 L71,158 L70,158 L70,157 L69,157 L69,155 L68,155 L68,154 L67,154 L67,153 L66,153 L66,152 L65,152 L65,150 L64,150 L64,149 L63,149 L63,148 L62,148 L62,146 L61,146 L61,145 L60,145 L60,143 L59,143 L59,141 L58,141 L58,140 L57,140 L57,138 L56,138 L56,136 L55,136 L55,134 L54,134 L54,132 L53,132 L53,129 L52,129 L52,127 L51,127 L51,124 L50,124 L50,121 L49,121 L49,117 L48,117 L48,113 L47,113 L47,106 L46,106 L46,82 L47,82 L47,75 L48,75 L48,71 L49,71 L49,67 L50,67 L50,64 L51,64 L51,61 L52,61 L52,58 L53,58 L53,56 L54,56 L54,54 L55,54 L55,52 L56,52 L56,50 L57,50 L57,48 L58,48 L58,46 L59,46 L59,45 L60,45 L60,43 L61,43 L61,41 L62,41 L62,40 L63,40 L63,39 L64,39 L64,37 L65,37 L65,36 L66,36 L66,35 L67,35 L67,33 L68,33 L68,32 L69,32 L69,31 L70,31 L70,30 L71,30 L71,29 L72,29 L72,28 L73,28 L73,27 L74,27 L74,26 L75,26 L75,25 L76,25 L76,24 L77,24 L77,23 L78,23 L78,22 L79,22 L79,21 L81,21 L81,20 L82,20 L82,19 L83,19 L83,18 L85,18 L85,17 L86,17 L86,16 L87,16 L87,15 L89,15 L89,14 L91,14 L91,13 L92,13 L92,12 L94,12 L94,11 L96,11 L96,10 L98,10 L98,9 L100,9 L100,8 L102,8 L102,7 L104,7 L104,6 L107,6 L107,5 L110,5 L110,4 L113,4 L113,3 L117,3 L117,2 L120,2 L120,1 L127,1 L127,0 L153,0 L153,1 L160,1 L160,2 L163,2 L163,3 L167,3 L167,4 L170,4 L170,5 L173,5 L173,6 L176,6 L176,7 L178,7 L178,8 L180,8 L180,9 L182,9 L182,10 L184,10 L184,11 L186,11 L186,12 L188,12 L188,13 L189,13 L189,14 L191,14 L191,15 L193,15 L193,16 L194,16 L194,17 L195,17 L195,18 L197,18 L197,19 L198,19 L198,20 L199,20 L199,21 L201,21 L201,22 L202,22 L202,23 L203,23 L203,24 L204,24 L204,25 L205,25 L205,26 L206,26 L206,27 L207,27 L207,28 L208,28 L208,29 L209,29 L209,30 L210,30 L210,31 L211,31 L211,32 L212,32 L212,33 L213,33 L213,35 L214,35 L214,36 L215,36 L215,37 L216,37 L216,39 L217,39 L217,40 L218,40 L218,41 L219,41 L219,43 L220,43 L220,45 L221,45 L221,46 L222,46 L222,48 L223,48 L223,50 L224,50 L224,52 L225,52 L225,54 L226,54 L226,56 L227,56 L227,58 L228,58 L228,61 L229,61 L229,64 L230,64 L230,67 L231,67 L231,71 L232,71 L232,75 L233,75 L233,82 L234,82 L234,106 L233,106 L233,113 L232,113 L232,117 L231,117 L231,121 L230,121 L230,124 L229,124 L229,127 L228,127 L228,129 L227,129 L227,132 L226,132 L226,134 L225,134 L225,136 L224,136 L224,138 L223,138 L223,140 L222,140 L222,141 L221,141 L221,143 L220,143 L220,145 L219,145 L219,146 L218,146 L218,148 L217,148 L217,149 L216,149 L216,150 L215,150 L215,152 L214,152 L214,153 L213,153 L213,154 L212,154 L212,155 L211,155 L211,157 L210,157 L210,158 L209,158 L209,159 L208,159 L208,160 L210,160 L210,161 L212,161 L212,162 L214,162 L214,163 L216,163 L216,164 L218,164 L218,165 L220,165 L220,166 L222,166 L222,167 L223,167 L223,168 L225,168 L225,169 L227,169 L227,170 L228,170 L228,171 L230,171 L230,172 L231,172 L231,173 L233,173 L233,174 L234,174 L234,175 L236,175 L236,176 L237,176 L237,177 L238,177 L238,178 L239,178 L239,179 L241,179 L241,180 L242,180 L242,181 L243,181 L243,182 L244,182 L244,183 L246,183 L246,184 L247,184 L247,185 L248,185 L248,186 L249,186 L249,187 L250,187 L250,188 L251,188 L251,189 L252,189 L252,190 L253,190 L253,191 L254,191 L254,192 L255,192 L255,193 L256,193 L256,194 L257,194 L257,195 L258,195 L258,196 L259,196 L259,197 L260,197 L260,198 L261,198 L261,199 L262,199 L262,200 L263,200 L263,201 L264,201 L264,203 L265,203 L265,204 L266,204 L266,205 L267,205 L267,206 L268,206 L268,208 L269,208 L269,209 L270,209 L270,210 L271,210 L271,211 L272,211 L272,213 L273,213 L273,214 L274,214 L274,216 L275,216 L275,217 L276,217 L276,219 L277,219 L277,220 L278,220 L278,222 L279,222 L279,224 L280,224 L280,225 L281,225 L281,227 L282,227 L282,229 L283,229 L283,231 L284,231 L284,233 L285,233 L285,235 L286,235 L286,237 L287,237 L287,239 L288,239 L288,241 L289,241 L289,243 L290,243 L290,246 L291,246 L291,248 L292,248 L292,251 L293,251 L293,254 L294,254 L294,257 L295,257 L295,260 L296,260 L296,263 L297,263 L297,267 L298,267 L298,271 L299,271 L299,276 L300,276 L300,282 L301,282 L301,289 L302,289 L302,290 L378,290 L378,234 L377,234 L377,227 L376,227 L376,222 L375,222 L375,219 L374,219 L374,215 L373,215 L373,212 L372,212 L372,209 L371,209 L371,207 L370,207 L370,204 L369,204 L369,202 L368,202 L368,200 L367,200 L367,198 L366,198 L366,196 L365,196 L365,194 L364,194 L364,192 L363,192 L363,191 L362,191 L362,189 L361,189 L361,187 L360,187 L360,186 L359,186 L359,184 L358,184 L358,183 L357,183 L357,182 L356,182 L356,180 L355,180 L355,179 L354,179 L354,178 L353,178 L353,177 L352,177 L352,175 L351,175 L351,174 L350,174 L350,173 L349,173 L349,172 L348,172 L348,171 L347,171 L347,170 L346,170 L346,169 L345,169 L345,168 L344,168 L344,167 L343,167 L343,166 L342,166 L342,165 L341,165 L341,164 L339,164 L339,163 L338,163 L338,162 L337,162 L337,161 L336,161 L336,160 L334,160 L334,159 L333,159 L333,158 L332,158 L332,157 L330,157 L330,156 L329,156 L329,155 L327,155 L327,154 L326,154 L326,153 L324,153 L324,152 L322,152 L322,151 L320,151 L320,150 L318,150 L318,149 L316,149 L316,148 L314,148 L314,147 L312,147 L312,146 L310,146 L310,145 L307,145 L307,144 L305,144 L305,145 L303,145 L303,146 L301,146 L301,147 L299,147 L299,148 L297,148 L297,149 L294,149 L294,150 L291,150 L291,151 L288,151 L288,152 L283,152 L283,153 L277,153 L277,154 L259,154 L259,153 L253,153 L253,152 L248,152 L248,151 L245,151 L245,150 L243,150 L243,149 L242,149 L242,147 L241,147 L241,145 L240,145 L240,140 L241,140 L241,138 L242,138 L242,136 L243,136 L243,135 L245,135 L245,134 L248,134 L248,133 L249,133 L249,134 L255,134 L255,135 L261,135 L261,136 L275,136 L275,135 L281,135 L281,134 L284,134 L284,133 L288,133 L288,132 L290,132 L290,131 L292,131 L292,130 L295,130 L295,129 L296,129 L296,128 L298,128 L298,127 L300,127 L300,126 L301,126 L301,125 L303,125 L303,124 L304,124 L304,123 L305,123 L305,122 L307,122 L307,121 L308,121 L308,120 L309,120 L309,119 L310,119 L310,118 L311,118 L311,117 L312,117 L312,116 L313,116 L313,114 L314,114 L314,113 L315,113 L315,112 L316,112 L316,111 L317,111 L317,109 L318,109 L318,107 L319,107 L319,106 L320,106 L320,104 L321,104 L321,102 L322,102 L322,100 L323,100 L323,97 L324,97 L324,94 L325,94 L325,91 L326,91 L326,85 L327,85 L327,68 L326,68 L326,63 L325,63 L325,59 L324,59 L324,57 L323,57 L323,54 L322,54 L322,52 L321,52 L321,50 L320,50 L320,48 L319,48 L319,46 L318,46 L318,45 L317,45 L317,43 L316,43 L316,42 L315,42 L315,40 L314,40 L314,39 L313,39 L313,38 L312,38 L312,37 L311,37 L311,36 L310,36 L310,35 L309,35 L309,34 L308,34 L308,33 L307,33 L307,32 L306,32 L306,31 L305,31 L305,30 L303,30 L303,29 L302,29 L302,28 L301,28 L301,27 L299,27 L299,26 L297,26 L297,25 L295,25 L295,24 L293,24 L293,23 L291,23 L291,22 L289,22 L289,21 L286,21 L286,20 L283,20 L283,19 L278,19 L278,18 L258,18 L258,19 L254,19 L254,20 L250,20 L250,21 L247,21 L247,22 L245,22 L245,23 L243,23 L243,24 L241,24 L241,25 L239,25 L239,26 L237,26 L237,27 L229,27 L229,26 L227,26 L227,25 L226,25 L226,24 L225,24 L225,22 L224,22 L224,15 L225,15 L225,13 L226,13 L226,12 L227,12 L227,11 L228,11 L228,10 L230,10 L230,9 L232,9 L232,8 L234,8 L234,7 L236,7 L236,6 L238,6 L238,5 L241,5 L241,4 L244,4 L244,3 L247,3 L247,2 L251,2 L251,1 L256,1 L256,0 L280,0 L280,1 L285,1 L285,2 L289,2 L289,3 L293,3 L293,4 L295,4 L295,5 L298,5 L298,6 L300,6 L300,7 L302,7 L302,8 L304,8 L304,9 L306,9 L306,10 L308,10 L308,11 L309,11 L309,12 L311,12 L311,13 L312,13 L312,14 L314,14 L314,15 L315,15 L315,16 L316,16 L316,17 L318,17 L318,18 L319,18 L319,19 L320,19 L320,20 L321,20 L321,21 L322,21 L322,22 L323,22 L323,23 L324,23 L324,24 L325,24 L325,25 L326,25 L326,26 L327,26 L327,27 L328,27 L328,29 L329,29 L329,30 L330,30 L330,31 L331,31 L331,33 L332,33 L332,34 L333,34 L333,36 L334,36 L334,37 L335,37 L335,39 L336,39 L336,41 L337,41 L337,43 L338,43 L338,45 L339,45 L339,47 L340,47 L340,50 L341,50 L341,53 L342,53 L342,56 L343,56 L343,60 L344,60 L344,66 L345,66 L345,87 L344,87 L344,93 L343,93 L343,97 L342,97 L342,101 L341,101 L341,104 L340,104 L340,106 L339,106 L339,109 L338,109 L338,111 L337,111 L337,113 L336,113 L336,114 L335,114 L335,116 L334,116 L334,118 L333,118 L333,119 L332,119 L332,121 L331,121 L331,122 L330,122 L330,124 L329,124 L329,125 L328,125 L328,126 L327,126 L327,127 L326,127 L326,128 L325,128 L325,129 L324,129 L324,130 L323,130 L323,132 L325,132 L325,133 L327,133 L327,134 L329,134 L329,135 L331,135 L331,136 L333,136 L333,137 L334,137 L334,138 L336,138 L336,139 L338,139 L338,140 L339,140 L339,141 L341,141 L341,142 L342,142 L342,143 L344,143 L344,144 L345,144 L345,145 L346,145 L346,146 L348,146 L348,147 L349,147 L349,148 L350,148 L350,149 L351,149 L351,150 L352,150 L352,151 L354,151 L354,152 L355,152 L355,153 L356,153 L356,154 L357,154 L357,155 L358,155 L358,156 L359,156 L359,157 L360,157 L360,158 L361,158 L361,159 L362,159 L362,160 L363,160 L363,161 L364,161 L364,162 L365,162 L365,164 L366,164 L366,165 L367,165 L367,166 L368,166 L368,167 L369,167 L369,169 L370,169 L370,170 L371,170 L371,171 L372,171 L372,173 L373,173 L373,174 L374,174 L374,175 L375,175 L375,177 L376,177 L376,178 L377,178 L377,180 L378,180 L378,182 L379,182 L379,183 L380,183 L380,185 L381,185 L381,187 L382,187 L382,189 L383,189 L383,191 L384,191 L384,193 L385,193 L385,195 L386,195 L386,198 L387,198 L387,200 L388,200 L388,203 L389,203 L389,206 L390,206 L390,208 L391,208 L391,212 L392,212 L392,216 L393,216 L393,219 L394,219 L394,225 L395,225 L395,232 L396,232 L396,303 L395,303 L395,304 L394,304 L394,305 L393,305 L393,306 L392,306 L392,307 L389,307 L389,308 L303,308 L303,376 L302,376 L302,380 L301,380 L301,381 L300,381 L300,382 L299,382 L299,383 L298,383 L298,384 L-18,384 L-18,383 L-19,383 L-19,382 L-20,382 L-20,381 L-21,381 L-21,380 L-22,380 L-22,376 L-23,376 L-23,308 L-109,308 L-109,307 L-112,307 L-112,306 L-113,306 L-113,305 L-114,305 L-114,304 L-115,304 L-115,303 L-116,303 L-116,232 L-115,232 L-115,225 L-114,225 L-114,220 L-113,220 L-113,216 L-112,216 L-112,212 L-111,212 L-111,208 L-110,208 L-110,206 L-109,206 L-109,203 L-108,203 L-108,200 L-107,200 L-107,197 L-106,197 L-106,195 L-105,195 L-105,193 L-104,193 L-104,191 L-103,191 L-103,189 L-102,189 L-102,187 L-101,187 L-101,185 L-100,185 L-100,184 L-99,184 L-99,182 L-98,182 L-98,180 L-97,180 L-97,179 L-96,179 L-96,177 L-95,177 L-95,175 L-94,175 L-94,174 L-93,174 L-93,173 L-92,173 L-92,171 L-91,171 L-91,170 L-90,170 L-90,169 L-89,169 L-89,167 L-88,167 L-88,166 L-87,166 L-87,165 L-86,165 L-86,164 L-85,164 L-85,163 L-84,163 L-84,162 L-83,162 L-83,160 L-82,160 L-82,159 L-81,159 L-81,158 L-80,158 L-80,157 L-79,157 L-79,156 L-78,156 L-78,155 L-77,155 L-77,154 L-76,154 L-76,153 L-75,153 L-75,152 L-73,152 L-73,151 L-72,151 L-72,150 L-71,150 L-71,149 L-70,149 L-70,148 L-69,148 L-69,147 L-67,147 L-67,146 L-66,146 L-66,145 L-65,145 L-65,144 L-64,144 L-64,143 L-62,143 L-62,142 L-61,142 L-61,141 L-59,141 L-59,140 L-58,140 L-58,139 L-56,139 L-56,138 L-54,138 L-54,137 L-53,137 L-53,136 L-51,136 L-51,135 L-49,135 L-49,134 L-47,134 L-47,133 L-45,133 L-45,132 L-43,132 L-43,130 L-44,130 L-44,129 L-45,129 L-45,128 L-46,128 L-46,127 L-47,127 L-47,126 L-48,126 L-48,125 L-49,125 L-49,124 L-50,124 L-50,122 L-51,122 L-51,121 L-52,121 L-52,119 L-53,119 L-53,118 L-54,118 L-54,116 L-55,116 L-55,114 L-56,114 L-56,113 L-57,113 L-57,111 L-58,111 L-58,108 L-59,108 L-59,106 L-60,106 L-60,103 L-61,103 L-61,101 L-62,101 L-62,97 L-63,97 L-63,93 L-64,93 L-64,87 L-65,87 L-65,66 L-64,66 L-64,60 L-63,60 L-63,56 L-62,56 L-62,53 L-61,53 L-61,50 L-60,50 L-60,47 L-59,47 L-59,45 L-58,45 L-58,43 L-57,43 L-57,41 L-56,41 L-56,39 L-55,39 L-55,37 L-54,37 L-54,36 L-53,36 L-53,34 L-52,34 L-52,33 L-51,33 L-51,31 L-50,31 L-50,30 L-49,30 L-49,29 L-48,29 L-48,27 L-47,27 L-47,26 L-46,26 L-46,25 L-45,25 L-45,24 L-44,24 L-44,23 L-43,23 L-43,22 L-42,22 L-42,21 L-41,21 L-41,20 L-40,20 L-40,19 L-39,19 L-39,18 L-38,18 L-38,17 L-36,17 L-36,16 L-35,16 L-35,15 L-34,15 L-34,14 L-32,14 L-32,13 L-31,13 L-31,12 L-29,12 L-29,11 L-28,11 L-28,10 L-26,10 L-26,9 L-24,9 L-24,8 L-22,8 L-22,7 L-20,7 L-20,6 L-18,6 L-18,5 L-15,5 L-15,4 L-13,4 L-13,3 L-9,3 L-9,2 L-5,2 L-5,1 L0,1 Z M129,18 L129,19 L123,19 L123,20 L120,20 L120,21 L116,21 L116,22 L114,22 L114,23 L111,23 L111,24 L109,24 L109,25 L107,25 L107,26 L104,26 L104,27 L103,27 L103,28 L101,28 L101,29 L99,29 L99,30 L98,30 L98,31 L96,31 L96,32 L95,32 L95,33 L94,33 L94,34 L92,34 L92,35 L91,35 L91,36 L90,36 L90,37 L89,37 L89,38 L88,38 L88,39 L87,39 L87,40 L86,40 L86,41 L85,41 L85,42 L84,42 L84,43 L83,43 L83,44 L82,44 L82,45 L81,45 L81,46 L80,46 L80,48 L79,48 L79,49 L78,49 L78,50 L77,50 L77,52 L76,52 L76,54 L75,54 L75,55 L74,55 L74,57 L73,57 L73,59 L72,59 L72,61 L71,61 L71,63 L70,63 L70,65 L69,65 L69,68 L68,68 L68,70 L67,70 L67,74 L66,74 L66,78 L65,78 L65,84 L64,84 L64,104 L65,104 L65,110 L66,110 L66,114 L67,114 L67,117 L68,117 L68,120 L69,120 L69,123 L70,123 L70,125 L71,125 L71,127 L72,127 L72,129 L73,129 L73,131 L74,131 L74,133 L75,133 L75,134 L76,134 L76,136 L77,136 L77,137 L78,137 L78,139 L79,139 L79,140 L80,140 L80,141 L81,141 L81,143 L82,143 L82,144 L83,144 L83,145 L84,145 L84,146 L85,146 L85,147 L86,147 L86,148 L87,148 L87,149 L88,149 L88,150 L89,150 L89,151 L90,151 L90,152 L91,152 L91,153 L93,153 L93,154 L94,154 L94,155 L95,155 L95,156 L97,156 L97,157 L98,157 L98,158 L100,158 L100,159 L102,159 L102,160 L103,160 L103,161 L105,161 L105,162 L107,162 L107,163 L109,163 L109,164 L112,164 L112,165 L114,165 L114,166 L117,166 L117,167 L121,167 L121,168 L124,168 L124,169 L131,169 L131,170 L149,170 L149,169 L156,169 L156,168 L159,168 L159,167 L163,167 L163,166 L166,166 L166,165 L168,165 L168,164 L171,164 L171,163 L173,163 L173,162 L175,162 L175,161 L177,161 L177,160 L178,160 L178,159 L180,159 L180,158 L182,158 L182,157 L183,157 L183,156 L185,156 L185,155 L186,155 L186,154 L187,154 L187,153 L189,153 L189,152 L190,152 L190,151 L191,151 L191,150 L192,150 L192,149 L193,149 L193,148 L194,148 L194,147 L195,147 L195,146 L196,146 L196,145 L197,145 L197,144 L198,144 L198,143 L199,143 L199,141 L200,141 L200,140 L201,140 L201,139 L202,139 L202,137 L203,137 L203,136 L204,136 L204,134 L205,134 L205,133 L206,133 L206,131 L207,131 L207,129 L208,129 L208,127 L209,127 L209,125 L210,125 L210,123 L211,123 L211,120 L212,120 L212,117 L213,117 L213,114 L214,114 L214,110 L215,110 L215,104 L216,104 L216,84 L215,84 L215,78 L214,78 L214,74 L213,74 L213,70 L212,70 L212,68 L211,68 L211,65 L210,65 L210,63 L209,63 L209,61 L208,61 L208,59 L207,59 L207,57 L206,57 L206,55 L205,55 L205,54 L204,54 L204,52 L203,52 L203,50 L202,50 L202,49 L201,49 L201,48 L200,48 L200,46 L199,46 L199,45 L198,45 L198,44 L197,44 L197,43 L196,43 L196,42 L195,42 L195,41 L194,41 L194,40 L193,40 L193,39 L192,39 L192,38 L191,38 L191,37 L190,37 L190,36 L189,36 L189,35 L188,35 L188,34 L186,34 L186,33 L185,33 L185,32 L184,32 L184,31 L182,31 L182,30 L181,30 L181,29 L179,29 L179,28 L177,28 L177,27 L176,27 L176,26 L173,26 L173,25 L171,25 L171,24 L169,24 L169,23 L166,23 L166,22 L164,22 L164,21 L160,21 L160,20 L157,20 L157,19 L151,19 L151,18 Z M86,173 L86,174 L84,174 L84,175 L82,175 L82,176 L79,176 L79,177 L77,177 L77,178 L75,178 L75,179 L73,179 L73,180 L71,180 L71,181 L70,181 L70,182 L68,182 L68,183 L66,183 L66,184 L64,184 L64,185 L63,185 L63,186 L61,186 L61,187 L60,187 L60,188 L58,188 L58,189 L57,189 L57,190 L55,190 L55,191 L54,191 L54,192 L53,192 L53,193 L51,193 L51,194 L50,194 L50,195 L49,195 L49,196 L47,196 L47,197 L46,197 L46,198 L45,198 L45,199 L44,199 L44,200 L43,200 L43,201 L42,201 L42,202 L41,202 L41,203 L40,203 L40,204 L38,204 L38,205 L37,205 L37,207 L36,207 L36,208 L35,208 L35,209 L34,209 L34,210 L33,210 L33,211 L32,211 L32,212 L31,212 L31,213 L30,213 L30,214 L29,214 L29,215 L28,215 L28,217 L27,217 L27,218 L26,218 L26,219 L25,219 L25,221 L24,221 L24,222 L23,222 L23,223 L22,223 L22,225 L21,225 L21,226 L20,226 L20,228 L19,228 L19,229 L18,229 L18,231 L17,231 L17,233 L16,233 L16,234 L15,234 L15,236 L14,236 L14,238 L13,238 L13,239 L12,239 L12,241 L11,241 L11,243 L10,243 L10,246 L9,246 L9,248 L8,248 L8,250 L7,250 L7,252 L6,252 L6,255 L5,255 L5,257 L4,257 L4,260 L3,260 L3,263 L2,263 L2,266 L1,266 L1,270 L0,270 L0,274 L-1,274 L-1,278 L-2,278 L-2,284 L-3,284 L-3,291 L-4,291 L-4,306 L-5,306 L-5,366 L285,366 L285,306 L284,306 L284,291 L283,291 L283,284 L282,284 L282,278 L281,278 L281,274 L280,274 L280,270 L279,270 L279,266 L278,266 L278,263 L277,263 L277,260 L276,260 L276,257 L275,257 L275,255 L274,255 L274,252 L273,252 L273,250 L272,250 L272,248 L271,248 L271,246 L270,246 L270,243 L269,243 L269,242 L268,242 L268,240 L267,240 L267,238 L266,238 L266,236 L265,236 L265,234 L264,234 L264,233 L263,233 L263,231 L262,231 L262,229 L261,229 L261,228 L260,228 L260,226 L259,226 L259,225 L258,225 L258,223 L257,223 L257,222 L256,222 L256,221 L255,221 L255,219 L254,219 L254,218 L253,218 L253,217 L252,217 L252,216 L251,216 L251,214 L250,214 L250,213 L249,213 L249,212 L248,212 L248,211 L247,211 L247,210 L246,210 L246,209 L245,209 L245,208 L244,208 L244,207 L243,207 L243,206 L242,206 L242,205 L241,205 L241,204 L240,204 L240,203 L239,203 L239,202 L238,202 L238,201 L237,201 L237,200 L236,200 L236,199 L235,199 L235,198 L234,198 L234,197 L232,197 L232,196 L231,196 L231,195 L230,195 L230,194 L229,194 L229,193 L227,193 L227,192 L226,192 L226,191 L225,191 L225,190 L223,190 L223,189 L222,189 L222,188 L221,188 L221,187 L219,187 L219,186 L217,186 L217,185 L216,185 L216,184 L214,184 L214,183 L213,183 L213,182 L211,182 L211,181 L209,181 L209,180 L207,180 L207,179 L205,179 L205,178 L203,178 L203,177 L201,177 L201,176 L199,176 L199,175 L197,175 L197,174 L194,174 L194,173 L191,173 L191,174 L189,174 L189,175 L187,175 L187,176 L185,176 L185,177 L184,177 L184,178 L182,178 L182,179 L180,179 L180,180 L177,180 L177,181 L175,181 L175,182 L172,182 L172,183 L170,183 L170,184 L166,184 L166,185 L163,185 L163,186 L158,186 L158,187 L151,187 L151,188 L129,188 L129,187 L122,187 L122,186 L117,186 L117,185 L114,185 L114,184 L110,184 L110,183 L108,183 L108,182 L105,182 L105,181 L103,181 L103,180 L100,180 L100,179 L98,179 L98,178 L96,178 L96,177 L95,177 L95,176 L93,176 L93,175 L91,175 L91,174 L89,174 L89,173 Z " fill="#000000" transform="translate(116,64)"/>
</svg>
